<?xml version="1.0" encoding="UTF-8"?>
<!DOCTYPE svg PUBLIC "-//W3C//DTD SVG 1.1//EN" "http://www.w3.org/Graphics/SVG/1.1/DTD/svg11.dtd">
<svg version="1.1" xmlns="http://www.w3.org/2000/svg" xmlns:xlink="http://www.w3.org/1999/xlink" width="16" height="16" viewBox="0 0 16 16" xml:space="preserve" id="maskicon">
    <!-- Generated by PaintCode - http://www.paintcodeapp.com -->
    <path id="maskicon-innerOval" stroke="none" fill="rgb(0, 0, 0)" d="M 8,3 C 7.15,3 6.35,3.21 5.65,3.59 4.07,4.43 3,6.09 3,8 3,10.76 5.24,13 8,13 10.76,13 13,10.76 13,8 13,5.24 10.76,3 8,3 Z M 14,8 C 14,11.31 11.31,14 8,14 4.69,14 2,11.31 2,8 2,5.84 3.14,3.94 4.86,2.89 5.77,2.32 6.85,2 8,2 11.31,2 14,4.69 14,8 Z M 14,8" />
    <circle id="maskicon-outerStroke" stroke="rgb(0, 0, 0)" stroke-width="0.12" stroke-miterlimit="10" fill="none" cx="8" cy="8" r="7" />
</svg>
