<?xml version="1.0" encoding="UTF-8"?>
<!DOCTYPE svg PUBLIC "-//W3C//DTD SVG 1.1//EN" "http://www.w3.org/Graphics/SVG/1.1/DTD/svg11.dtd">
<svg version="1.1" xmlns="http://www.w3.org/2000/svg" xmlns:xlink="http://www.w3.org/1999/xlink" width="60" height="60"  xml:space="preserve" id="appIconv1">
    <!-- Generated by PaintCode - http://www.paintcodeapp.com -->
    <g id="appIconv1-lines">
        <path id="appIconv1-bezier5" stroke="none" fill="rgb(255, 217, 0)" d="M 52.52,43 C 52.12,43.69 51.7,44.35 51.24,45 51.24,45 50.84,45 50.11,45 43.36,45 8.76,45 8.76,45 8.3,44.35 7.88,43.69 7.48,43 L 52.52,43 Z M 30,56 C 21.23,56 13.47,51.66 8.76,45 8.76,45 43.36,45 50.11,45 50.84,45 51.24,45 51.24,45 46.53,51.66 38.77,56 30,56 Z M 30,56" />
        <path id="appIconv1-bezier" stroke="none" fill="rgb(0, 179, 0)" d="M 52.52,43 L 7.48,43 C 5.27,39.18 4,34.74 4,30 L 56,30 C 56,34.74 54.73,39.18 52.52,43 Z M 52.52,43" />
        <path id="appIconv1-bezier2" stroke="none" fill="rgb(217, 87, 0)" d="M 56,30 L 4,30 C 4,25.26 5.27,20.82 7.48,17 L 52.52,17 C 54.73,20.82 56,25.26 56,30 Z M 56,30" />
        <path id="appIconv1-bezier3" stroke="none" fill="rgb(0, 149, 230)" d="M 51.24,15 C 51.24,15 40.58,15 29.94,15 40.58,15 51.24,15 51.24,15 51.7,15.65 52.12,16.31 52.52,17 L 7.48,17 C 7.88,16.31 8.3,15.65 8.76,15 9.83,13.49 11.05,12.11 12.4,10.86 13.35,9.99 14.37,9.18 15.44,8.46 19.59,5.64 24.6,4 30,4 38.77,4 46.53,8.34 51.24,15 Z M 51.24,15" />
    </g>
    <circle id="appIconv1-innerOval" stroke="none" fill="rgb(255, 255, 255)" cx="30" cy="30" r="19" />
</svg>
