<?xml version="1.0" encoding="UTF-8"?>
<!DOCTYPE svg PUBLIC "-//W3C//DTD SVG 1.1//EN" "http://www.w3.org/Graphics/SVG/1.1/DTD/svg11.dtd">
<svg version="1.1" xmlns="http://www.w3.org/2000/svg" xmlns:xlink="http://www.w3.org/1999/xlink" width="60" height="60"  xml:space="preserve" id="appIconDarkv">
    <!-- Generated by PaintCode - http://www.paintcodeapp.com -->
    <g id="appIconDarkv-lines">
        <path id="appIconDarkv-bezier4" stroke="none" fill="rgb(0, 149, 230)" d="M 51.24,15 C 51.24,15 47.22,15 41.66,15 38.44,12.49 34.4,11 30,11 26.48,11 23.18,11.96 20.35,13.63 18.79,14.55 17.38,15.69 16.14,17 11.03,17 7.48,17 7.48,17 7.88,16.31 8.3,15.65 8.76,15 9.83,13.49 11.05,12.11 12.4,10.86 13.35,9.99 14.37,9.18 15.44,8.46 16.13,7.99 16.84,7.56 17.57,7.16 21.26,5.14 25.5,4 30,4 38.77,4 46.53,8.34 51.24,15 Z M 51.19,15 C 51.7,15.65 52.12,16.31 52.52,17 52.52,17 48.97,17 43.86,17 43.18,16.28 42.45,15.61 41.66,15 47.22,15 51.24,15 51.24,15 L 51.19,15 Z M 51.19,15" />
        <path id="appIconDarkv-bezier3" stroke="none" fill="rgb(217, 87, 0)" d="M 52.48,17 C 54.73,20.82 56,25.26 56,30 L 49,30 C 49,24.97 47.05,20.4 43.86,17 48.97,17 52.52,17 52.52,17 L 52.48,17 Z M 7.48,17 C 7.48,17 11.03,17 16.14,17 12.95,20.4 11,24.97 11,30 L 4,30 C 4,25.26 5.27,20.82 7.48,17 L 7.48,17 Z M 7.48,17" />
        <path id="appIconDarkv-bezier2" stroke="none" fill="rgb(0, 179, 0)" d="M 52.52,43 L 43.86,43 C 47.05,39.6 49,35.03 49,30 L 56,30 C 56,34.74 54.73,39.18 52.52,43 Z M 16.14,43 L 7.48,43 C 5.27,39.18 4,34.74 4,30 L 11,30 C 11,35.03 12.95,39.6 16.14,43 Z M 16.14,43" />
        <path id="appIconDarkv-bezier" stroke="none" fill="rgb(255, 217, 0)" d="M 16.14,43 C 16.82,43.72 17.55,44.39 18.34,45 12.78,45 8.76,45 8.76,45 8.3,44.35 7.88,43.69 7.48,43 7.48,43 11.03,43 16.14,43 Z M 51.24,45 C 51.24,45 50.84,45 50.11,45 48.54,45 45.46,45 41.66,45 42.45,44.39 43.18,43.72 43.86,43 47.41,43 50.22,43 51.59,43 52.19,43 52.52,43 52.52,43 52.12,43.69 51.7,44.35 51.24,45 Z M 30,56 C 21.23,56 13.47,51.66 8.76,45 8.76,45 12.78,45 18.34,45 21.56,47.51 25.6,49 30,49 34.4,49 38.44,47.51 41.66,45 45.46,45 48.54,45 50.11,45 50.84,45 51.24,45 51.24,45 46.53,51.66 38.77,56 30,56 Z M 30,56" />
    </g>
</svg>
